<svg width="140" height="32" viewBox="0 0 140 32" fill="none" xmlns="http://www.w3.org/2000/svg">
<g clip-path="url(#clip0_62_5367)">
<path d="M26 6.26442L27.2482 6V12.9831C28.5453 11.509 30.0321 10.6263 31.939 10.6284C34.9166 10.6284 37.3762 12.8082 37.3762 16.2852C37.3762 19.504 34.9288 22.2107 31.7432 22.2107C28.1129 22.2128 26 19.8101 26 16.177V6.26442Z" fill="#1A171B"/>
<path d="M31.7634 20.9344C34.3025 20.9344 36.032 19.019 36.1156 16.4622C36.1156 13.8243 34.2801 11.9047 31.6961 11.9047C29.2161 11.9047 27.25 13.8222 27.25 16.5309C27.25 19.1293 29.3201 20.9365 31.7654 20.9365L31.7634 20.9344Z" fill="#74AE43"/>
<path d="M39.8909 11.2863C40.8886 10.8596 41.9582 10.6354 43.0399 10.6263C44.7306 10.6263 46.4295 11.5258 46.4295 13.4246V21.9484L45.1854 22.2128V20.8262H45.1344C44.7021 21.6403 43.7517 22.2128 42.4831 22.2128C40.256 22.2128 38.3613 20.7554 38.3613 18.3569C38.3613 15.9126 39.9338 14.1741 42.3342 14.1741C43.407 14.1741 44.4471 14.7987 45.1895 15.4525V13.6016C45.1895 12.6751 44.08 11.9047 42.6361 11.9047C41.6041 11.9047 40.4375 12.4585 39.4892 12.7875L39.8971 11.2863H39.8909Z" fill="#1A171B"/>
<path d="M42.5673 20.9345C44.0989 20.9345 45.1839 19.7665 45.1839 18.205C45.1839 16.5768 44.0744 15.4525 42.5326 15.4525C40.8704 15.4525 39.6182 16.5935 39.6182 18.3674C39.6182 19.9976 41.1335 20.9449 42.5754 20.9449L42.5673 20.9345Z" fill="#1DA0D5"/>
<path d="M48.7563 6.26442L50.0065 6V12.981C51.3016 11.5049 52.7925 10.6263 54.6974 10.6263C57.6791 10.6263 60.1305 12.8062 60.1305 16.2831C60.1305 19.502 57.6933 22.2107 54.4995 22.2107C50.8754 22.2107 48.7604 19.8101 48.7604 16.1728V6.26442H48.7563Z" fill="#1A171B"/>
<path d="M54.5181 20.9344C57.0633 20.9344 58.7908 19.019 58.8826 16.4622C58.8826 13.8201 57.047 11.9047 54.4569 11.9047C51.9728 11.9047 50.0088 13.8243 50.0088 16.5309C50.0088 19.1293 52.0809 20.9365 54.5181 20.9365V20.9344Z" fill="#DD2A81"/>
<path d="M60.2598 10.8908L61.4855 10.6263L65.8235 18.688L69.623 10.6263L70.8773 10.8908L63.6453 26L62.4359 25.7356L65.1158 20.0309L60.2598 10.8908Z" fill="#1A171B"/>
<path d="M71.6662 19.7226C72.482 20.5138 73.2223 20.9323 74.3869 20.9323C75.6616 20.9323 76.716 20.2494 76.716 18.8836C76.716 16.1082 71.0054 17.7135 71.0054 13.8409C71.0054 11.8151 72.7308 10.6241 74.5827 10.6241C75.9043 10.6241 76.7833 11.1738 77.8214 11.9233L77.1096 12.9352C76.3529 12.3626 75.5127 11.8942 74.5194 11.8942C73.2958 11.8942 72.2577 12.5084 72.2577 13.768C72.2577 16.5434 77.9682 14.7133 77.9682 18.8107C77.9682 21.1259 76.2245 22.2044 74.1034 22.2023C72.7893 22.1824 71.5503 21.5732 70.7158 20.5367L71.6621 19.7205L71.6662 19.7226Z" fill="#1A171B"/>
<path d="M79.9155 22.1232V6.26234L81.1657 6V12.2336H81.2024C81.7939 11.2384 83.0196 10.6284 84.3351 10.6284C86.4215 10.6284 88.3671 11.4612 88.3671 14.5259V21.9483L87.121 22.1232V14.2386C87.121 12.6271 86.1013 11.7693 84.3759 11.7693C83.1909 11.7693 81.1657 12.6521 81.1657 14.7882V21.9483L79.9155 22.1232Z" fill="#1A171B"/>
<path d="M101.074 16.4102C101.074 19.3854 98.7242 22.2024 95.5365 22.2024C92.3488 22.2024 89.9932 19.3938 89.9932 16.4102C89.9932 13.4267 92.3406 10.6263 95.5467 10.6263C98.7527 10.6263 101.074 13.4433 101.074 16.4102Z" fill="#1A171B"/>
<path d="M91.2373 16.4101C91.2373 18.7669 93.0953 20.926 95.5365 20.926C97.9778 20.926 99.8296 18.7753 99.8296 16.4101C99.8296 14.0449 97.9737 11.8983 95.5467 11.8983C93.1197 11.8983 91.2373 14.0595 91.2373 16.4101Z" fill="#F3BB19"/>
<path d="M104.056 25.7356L102.798 26V10.8887L104.056 10.6263V13.181H104.097C104.959 11.6097 106.583 10.6337 108.347 10.6263C111.496 10.6263 113.999 13.333 113.999 16.456C114.018 17.9826 113.435 19.453 112.381 20.5357C111.327 21.6183 109.89 22.2221 108.394 22.2108C106.732 22.2427 105.15 21.4851 104.111 20.16H104.07V25.7356H104.056Z" fill="#1A171B"/>
<path d="M108.461 20.9343C111.025 20.9343 112.744 18.6649 112.744 16.46C112.744 13.8804 111.019 11.9025 108.406 11.9025C105.991 11.9025 104.052 13.9845 104.052 16.3934C104.052 19.2583 106.071 20.9343 108.455 20.9343H108.461Z" fill="#E87926"/>
</g>
<defs>
<clipPath id="clip0_62_5367">
<rect width="87.9992" height="20" fill="white" transform="translate(26 6)"/>
</clipPath>
</defs>
</svg>
