<svg width="140" height="32" viewBox="0 0 140 32" fill="none" xmlns="http://www.w3.org/2000/svg">
<mask id="mask0_62_5352" style="mask-type:alpha" maskUnits="userSpaceOnUse" x="112" y="7" width="15" height="15">
<path fill-rule="evenodd" clip-rule="evenodd" d="M119.582 7.5H126.5V21.61H112.664V7.5H119.582Z" fill="white"/>
</mask>
<g mask="url(#mask0_62_5352)">
<path fill-rule="evenodd" clip-rule="evenodd" d="M119.582 7.5C115.762 7.5 112.664 10.6581 112.664 14.555C112.664 18.4519 115.762 21.61 119.582 21.61C123.403 21.61 126.5 18.4511 126.5 14.555C126.5 10.6581 123.403 7.5 119.582 7.5Z" fill="#D71920"/>
</g>
<path fill-rule="evenodd" clip-rule="evenodd" d="M114.005 14.5551C114.005 17.6954 116.503 20.2423 119.582 20.2423C122.662 20.2423 125.159 17.6954 125.159 14.5551C125.159 11.4139 122.662 8.8678 119.582 8.8678C116.503 8.8678 114.005 11.4139 114.005 14.5551Z" fill="#FDB913"/>
<path fill-rule="evenodd" clip-rule="evenodd" d="M115.438 14.5471C115.438 16.8815 117.293 18.7739 119.582 18.7739C121.871 18.7739 123.727 16.8815 123.727 14.5471C123.727 12.2127 121.871 10.3203 119.582 10.3203C117.293 10.3203 115.438 12.2127 115.438 14.5471Z" fill="#008FD5"/>
<path fill-rule="evenodd" clip-rule="evenodd" d="M116.801 14.5473C116.801 16.1137 118.046 17.3832 119.582 17.3832C121.118 17.3832 122.363 16.1137 122.363 14.5473C122.363 12.981 121.118 11.7114 119.582 11.7114C118.046 11.7114 116.801 12.981 116.801 14.5473Z" fill="#E4368E"/>
<path fill-rule="evenodd" clip-rule="evenodd" d="M118.195 14.5858C118.195 13.8046 118.816 13.1718 119.582 13.1718C120.348 13.1718 120.969 13.8046 120.969 14.5858C120.969 15.3671 120.348 15.9999 119.582 15.9999C118.816 15.9999 118.195 15.3671 118.195 14.5858Z" fill="white"/>
<path fill-rule="evenodd" clip-rule="evenodd" d="M26.3594 15.0958C26.692 13.5488 28.0415 12.4492 29.5949 12.4608C31.1285 12.4515 32.4507 13.5596 32.7394 15.0958H26.3594ZM29.5265 10.6759C28.1073 10.6535 26.7495 11.2632 25.8061 12.345C24.8794 13.3495 24.371 14.6825 24.3891 16.0618C24.4043 17.472 24.9461 18.8235 25.9046 19.8404C26.8487 20.8682 28.1763 21.4384 29.5568 21.4091C31.733 21.4238 33.6743 20.0174 34.376 17.9163H32.3529C31.8005 18.9618 30.7215 19.6063 29.5568 19.5854C27.9338 19.6024 26.5418 18.407 26.2835 16.7727H34.717V16.4636C34.7753 15.2628 34.4768 14.0728 33.8607 13.0482C32.9121 11.5576 31.2837 10.6635 29.5417 10.6759H29.5265Z" fill="#231F20"/>
<path fill-rule="evenodd" clip-rule="evenodd" d="M40.4064 10.8072C39.3214 10.7678 38.284 11.2624 37.618 12.1363V10.9772H35.8828V21.1703H37.6862V16.5332C37.6862 13.8982 38.3151 12.5691 40.2322 12.5691C41.8916 12.5691 42.6493 13.6122 42.6493 15.7527V21.1618H44.4527V15.3586C44.4527 12.3991 42.9827 10.8072 40.3989 10.8072" fill="#231F20"/>
<path fill-rule="evenodd" clip-rule="evenodd" d="M18.5619 12.492C19.8523 12.4147 21.0564 13.1542 21.5928 14.3542H23.5629C22.9628 12.1404 20.9647 10.6251 18.7135 10.6761C17.2692 10.6691 15.8917 11.2904 14.9248 12.3838C13.9974 13.3821 13.4859 14.7097 13.5003 16.0851C13.5162 17.4954 14.058 18.8469 15.0158 19.8638C15.9561 20.8846 17.2798 21.4471 18.6528 21.4092C21.0169 21.4092 22.6915 20.1188 23.525 17.6692H21.5549C21.0632 18.86 19.9198 19.6335 18.6528 19.632C16.8154 19.6181 15.3378 18.0865 15.3522 16.2134C15.3529 16.1632 15.3545 16.113 15.3567 16.062C15.2552 14.1958 16.6562 12.5986 18.4869 12.4951C18.5119 12.4935 18.5369 12.4927 18.5619 12.492Z" fill="#231F20"/>
<mask id="mask1_62_5352" style="mask-type:alpha" maskUnits="userSpaceOnUse" x="13" y="7" width="114" height="18">
<path fill-rule="evenodd" clip-rule="evenodd" d="M13.5 24.5H126.5V7.5H13.5V24.5Z" fill="white"/>
</mask>
<g mask="url(#mask1_62_5352)">
<path fill-rule="evenodd" clip-rule="evenodd" d="M91.7812 21.1696H93.5695V10.9773H91.7812V21.1696Z" fill="#231F20"/>
<path fill-rule="evenodd" clip-rule="evenodd" d="M91.7812 9.78728H93.5695V7.67773H91.7812V9.78728Z" fill="#231F20"/>
<path fill-rule="evenodd" clip-rule="evenodd" d="M100.23 10.8072C99.1449 10.7678 98.1075 11.2624 97.4415 12.1363V10.9772H95.7139V21.1703H97.5173V16.5332C97.5173 13.8982 98.1462 12.5691 100.063 12.5691C101.723 12.5691 102.48 13.6122 102.48 15.7527V21.1618H104.284V15.3586C104.284 12.3991 102.814 10.8072 100.23 10.8072Z" fill="#231F20"/>
<path fill-rule="evenodd" clip-rule="evenodd" d="M58.6006 15.0958C58.934 13.5457 60.2873 12.4461 61.8437 12.4608C63.3773 12.4515 64.6995 13.5596 64.9882 15.0958H58.6006ZM61.7824 10.6759C60.3632 10.6535 59.0053 11.2632 58.062 12.345C57.1353 13.3495 56.6268 14.6825 56.645 16.0618C56.6609 17.472 57.2027 18.8228 58.1605 19.8404C59.1061 20.8705 60.4374 21.4408 61.8203 21.4091C63.9965 21.4238 65.9378 20.0174 66.6394 17.9163H64.6087C64.0578 18.9595 62.9826 19.6032 61.8203 19.5854C60.1972 19.6024 58.8053 18.407 58.5469 16.7727H66.9577V16.4636C67.016 15.2628 66.7175 14.0728 66.1014 13.0482C65.1535 11.5568 63.5252 10.662 61.7824 10.6759Z" fill="#231F20"/>
<path fill-rule="evenodd" clip-rule="evenodd" d="M85.1289 19.6555C83.2914 19.6493 81.807 18.1262 81.8131 16.2524C81.8131 16.196 81.8146 16.1411 81.8176 16.0847C81.7214 14.2054 83.1368 12.6028 84.9804 12.5039C85.0243 12.5016 85.069 12.5 85.113 12.5C86.9383 12.5046 88.4129 14.0176 88.4076 15.8784C88.4076 15.9417 88.4053 16.0059 88.4015 16.0692C88.5068 17.94 87.1043 19.5426 85.2706 19.6501C85.2236 19.6524 85.1759 19.6547 85.1289 19.6555ZM85.0074 10.6532C83.604 10.6725 82.2735 11.2922 81.34 12.3609C80.4095 13.3632 79.9018 14.6969 79.923 16.0777C79.9382 17.4872 80.4807 18.8387 81.4385 19.8564C82.3871 20.898 83.7268 21.4768 85.1203 21.4474C86.5539 21.4505 87.9185 20.8223 88.8642 19.725C89.7644 18.6803 90.2599 17.3365 90.2584 15.9464C90.2523 14.5501 89.7083 13.2117 88.7429 12.2211C87.7715 11.2042 86.4296 10.6447 85.0377 10.6756" fill="#231F20"/>
<path fill-rule="evenodd" clip-rule="evenodd" d="M73.5805 19.6553C71.643 19.6546 70.0723 18.0535 70.0723 16.0768C70.0723 14.1018 71.643 12.4999 73.5805 12.4999C75.4893 12.5068 77.0297 14.0909 77.0221 16.0367C77.0221 16.0707 77.0214 16.1047 77.0206 16.1394C77.029 18.072 75.4991 19.6461 73.6033 19.6546C73.6002 19.6553 73.598 19.6553 73.5957 19.6553M73.6411 10.7528C72.3704 10.7489 71.1558 11.2867 70.2919 12.2364V10.9776H68.4658V24.5004H70.2692V19.9328C71.1747 20.8995 72.4363 21.4357 73.7472 21.4095C75.1376 21.4682 76.4826 20.9026 77.4297 19.864C78.3724 18.8571 78.8944 17.5149 78.8846 16.124C78.9649 13.2402 76.7379 10.8355 73.9101 10.7536C73.8177 10.7512 73.7252 10.7512 73.6335 10.7528" fill="#231F20"/>
<path fill-rule="evenodd" clip-rule="evenodd" d="M53.5384 12.1365V10.9774H51.8486V21.1696H53.6596V15.4978C53.6596 13.7128 54.2203 12.8628 55.9328 12.7237V10.8074C54.9583 10.7765 54.0423 11.2841 53.5384 12.1365Z" fill="#231F20"/>
<path fill-rule="evenodd" clip-rule="evenodd" d="M48.7425 12.6L50.1595 12.6464V10.9773H48.7425V7.67773H46.9619V10.9773H45.5449V12.6464H46.9543V18.3182C47.0914 19.8157 48.1038 21.0807 49.5154 21.5173L50.1292 19.7864C49.2949 19.5739 48.7168 18.8004 48.735 17.9241L48.7425 12.6Z" fill="#231F20"/>
<path fill-rule="evenodd" clip-rule="evenodd" d="M108.383 12.6L109.8 12.6464V10.9773H108.383V7.67773H106.595V10.9773H105.185V12.6464H106.602V18.3182C106.739 19.8157 107.751 21.0807 109.163 21.5173L109.777 19.7864C108.943 19.5739 108.364 18.8004 108.383 17.9241V12.6Z" fill="#231F20"/>
</g>
</svg>
