<svg width="140" height="32" viewBox="0 0 140 32" fill="none" xmlns="http://www.w3.org/2000/svg">
<path fill-rule="evenodd" clip-rule="evenodd" d="M61.6105 16.2718H63.3043V17.9365H64.2298V13.6752H63.3049V15.3436H61.6111V13.6752H60.6851V17.9365H61.6105V16.2718ZM69.8981 13.6771V17.9366H70.805V15.8616L72.0055 17.0777L73.2066 15.8616V17.9366H74.1129V13.6771L72.0055 15.7751L69.8981 13.6771ZM77.5432 17.0337H75.7319V16.257H77.5444V15.3566H75.7319V14.5798H77.5444V13.6752H74.8287V17.9365H77.5444L77.5432 17.0337ZM67.0595 16.9854C67.7102 16.9856 68.2379 16.4584 68.2381 15.8079C68.2382 15.1574 67.7108 14.63 67.0601 14.6298C66.4094 14.6298 65.8818 15.1571 65.8818 15.8076C65.8818 16.4581 66.4094 16.9854 67.0601 16.9854H67.0595ZM69.1844 15.8076C69.1975 16.5752 68.7954 17.2901 68.1325 17.6777C67.4697 18.0653 66.6492 18.0653 65.9863 17.6777C65.3234 17.2901 64.9213 16.5752 64.9344 15.8076C64.9542 14.6486 65.8998 13.7194 67.0594 13.7194C68.2191 13.7194 69.1647 14.6486 69.1844 15.8076ZM64.112 24.7933H62.1152V23.4783H64.0996C64.9651 23.4783 64.9774 24.7933 64.112 24.7933ZM62.1152 20.786H64.112C64.9774 20.786 64.9651 22.1004 64.0996 22.1004H62.1152V20.786ZM65.5953 22.7893C65.9959 22.4909 66.1888 22.046 66.1888 21.5281C66.1789 20.3244 65.4494 19.348 64.0387 19.348H60.6851L60.6857 26.2313H64.0387C65.4494 26.2313 66.1795 25.255 66.19 24.0518C66.19 23.534 65.9959 23.089 65.5959 22.79L65.5953 22.7893ZM70.5221 24.6988C69.832 24.7111 69.189 24.3501 68.8405 23.7546C68.4919 23.1591 68.492 22.4219 68.8408 21.8266C69.1895 21.2312 69.8326 20.8704 70.5227 20.8829C71.577 20.8831 72.4316 21.7376 72.4314 22.7915C72.4312 23.8453 71.5764 24.6995 70.5221 24.6994M70.5223 19.3515C69.2929 19.3513 68.1568 20.0067 67.5419 21.0709C66.927 22.1351 66.9268 23.4463 67.5413 24.5107C68.1558 25.5751 69.2917 26.2309 70.5211 26.2312C72.4214 26.2312 73.9619 24.6912 73.9619 22.7917C73.9619 20.8921 72.4214 19.3522 70.5211 19.3522" fill="#D02139"/>
<path fill-rule="evenodd" clip-rule="evenodd" d="M57.9146 3.91318H82.0591V15.2358L77.5389 21.5315L75.9069 19.3501H74.1636L76.6858 22.7204L74.1636 26.2322H75.8884L77.5637 23.8945L80.7016 28.0892H57.9146V3.91318ZM83.4994 29.4988L78.4166 22.705L82.059 17.6224V17.6286L83.4691 15.6635V2.5H56.5H56.5012V29.5H83.4635L83.4808 29.4988H83.5H83.4994Z" fill="#D02139"/>
</svg>
