<svg width="140" height="32" viewBox="0 0 140 32" fill="none" xmlns="http://www.w3.org/2000/svg">
<path d="M0 24.4816L0.796832 24.3691C1.52543 24.2568 1.73031 23.897 1.73031 23.0877V13.2681C1.73031 12.5262 1.41165 12.189 0.660738 12.144L0.000368616 12.1216V11.5365L3.64337 11.4243V16.6361C4.55417 15.1067 5.76094 14.3205 7.12704 14.3205C9.69992 14.3205 10.4514 15.7368 10.4514 18.7941V23.0879C10.4514 23.8748 10.6107 24.257 11.2938 24.3693L12.0908 24.4818V25.1336H8.379V18.2548C8.379 16.2543 7.90082 15.2425 6.53491 15.2425C5.76039 15.2425 4.96392 15.7146 4.46288 16.5239C3.84806 17.4905 3.8027 18.6596 3.8027 20.1653V23.0877C3.8027 23.897 4.00739 24.2568 4.78154 24.3691L5.69252 24.4816V25.1334H0V24.4816Z" fill="#667278"/>
<path d="M14.0481 15.8047C15.0252 14.854 16.342 14.321 17.7139 14.321C19.0857 14.321 20.4025 14.854 21.3796 15.8047C21.9277 16.3353 22.3632 16.9685 22.6604 17.6672C22.9576 18.3659 23.1107 19.1161 23.1107 19.874C23.1107 20.6318 22.9576 21.3821 22.6604 22.0808C22.3632 22.7795 21.9277 23.4127 21.3796 23.9433C20.8994 24.4206 20.3283 24.7994 19.6991 25.0579C19.07 25.3164 18.3953 25.4495 17.7139 25.4495C17.0324 25.4495 16.3577 25.3164 15.7286 25.0579C15.0995 24.7994 14.5283 24.4206 14.0481 23.9433C13.5001 23.4126 13.0648 22.7794 12.7676 22.0807C12.4704 21.382 12.3174 20.6318 12.3174 19.874C12.3174 19.1162 12.4704 18.366 12.7676 17.6673C13.0648 16.9686 13.5001 16.3354 14.0481 15.8047ZM17.714 24.7968C19.7176 24.7968 20.6512 23.1782 20.6512 19.8738C20.6512 16.5694 19.6949 14.9505 17.714 14.9505C15.733 14.9505 14.7767 16.5693 14.7767 19.8738C14.7767 23.1784 15.7104 24.7968 17.714 24.7968Z" fill="#667278"/>
<path d="M23.313 24.4816L24.1098 24.3691C24.8384 24.2568 25.0433 23.897 25.0433 23.0877V16.3444C25.0433 15.6026 24.7246 15.2884 23.9737 15.2429L23.3134 15.2203V14.6134L26.9564 14.5235V16.6366C27.8672 15.0856 29.0511 14.321 30.5767 14.321C31.9428 14.321 33.0129 15.1753 33.3544 16.659C34.1741 15.1305 35.4491 14.321 36.8154 14.321C39.229 14.321 40.0029 15.7823 40.0029 18.7947V23.0884C40.0029 23.8753 40.1625 24.2575 40.8455 24.3698L41.6423 24.4824V25.1342H37.9542V18.2548C37.9542 16.2543 37.4533 15.2651 36.1554 15.2651C35.4268 15.2651 34.6754 15.7146 34.1745 16.5239C33.5599 17.5131 33.4922 18.6596 33.4922 20.1653V23.0877C33.4922 23.8746 33.6744 24.2568 34.3574 24.3691L35.132 24.4816V25.1334H31.5553V18.2548C31.5553 16.2543 31.0545 15.2651 29.7566 15.2651C29.028 15.2651 28.2767 15.7146 27.7757 16.5239C27.1609 17.5131 27.1155 18.6596 27.1155 20.1653V23.0877C27.1155 23.897 27.3202 24.2568 28.0944 24.3691L29.0051 24.4816V25.1334H23.313V24.4816Z" fill="#667278"/>
<path d="M44.4644 19.7389C44.4644 19.9186 44.4417 20.0759 44.4417 20.256C44.4417 22.9985 45.6714 24.5271 47.6977 24.5271C48.8817 24.5271 49.9063 23.8977 50.9309 22.6165L51.4546 22.9988C50.43 24.6174 49.0411 25.4491 47.3334 25.4491C45.7167 25.4491 44.5784 24.9545 43.4856 23.7406C42.503 22.6851 41.9512 21.3077 41.9365 19.8742C41.9533 18.6329 42.3678 17.4287 43.1206 16.4343C44.1225 15.0857 45.5568 14.2988 47.0823 14.2988C49.6782 14.2988 51.545 16.322 51.5907 19.7393L44.4644 19.7389ZM49.3144 18.6148C49.3144 16.3207 48.358 15.0178 46.9464 15.0178C45.4436 15.0178 44.5784 16.3442 44.42 18.9971H49.3153L49.3144 18.6148Z" fill="#667278"/>
<path d="M62.4753 22.9081C61.4505 24.6392 60.0617 25.4485 58.1035 25.4485C56.4869 25.4485 55.2573 24.8865 54.1418 23.6724C53.2435 22.6477 52.7431 21.3411 52.73 19.9859C52.7382 18.7038 53.197 17.4642 54.0279 16.4789C55.2119 15.0405 56.7147 14.2982 58.4679 14.2982C60.7219 14.2982 62.1561 15.4899 62.1561 16.8836C62.1561 17.7605 61.587 18.3451 60.7444 18.3451C59.9699 18.3451 59.4921 17.8954 59.4921 17.198C59.4921 16.4333 59.9247 16.051 60.7671 16.051H60.9948C60.5622 15.3316 59.8109 14.995 58.6952 14.995C56.3271 14.995 55.2569 16.5688 55.2569 19.8282C55.2569 22.9529 56.4637 24.6167 58.6041 24.6167C59.8565 24.6167 61.1088 23.8973 61.9283 22.5483L62.4753 22.9081Z" fill="#667278"/>
<path d="M65.6172 19.7389C65.6172 19.9186 65.5946 20.0759 65.5946 20.256C65.5946 22.9985 66.8242 24.5271 68.8505 24.5271C70.0346 24.5271 71.0591 23.8977 72.0839 22.6165L72.6075 22.9988C71.5829 24.6174 70.1941 25.4491 68.4863 25.4491C66.8696 25.4491 65.7312 24.9545 64.6384 23.7406C63.6558 22.6851 63.104 21.3077 63.0894 19.8742C63.1061 18.6329 63.5206 17.4287 64.2734 16.4343C65.2753 15.0857 66.7097 14.2988 68.2351 14.2988C70.831 14.2988 72.6978 16.322 72.7437 19.7393L65.6172 19.7389ZM70.4672 18.6148C70.4672 16.3207 69.5109 15.0178 68.0992 15.0178C66.5965 15.0178 65.7312 16.3442 65.5719 18.9971H70.4672V18.6148Z" fill="#667278"/>
<path d="M73.0156 24.4816L73.8125 24.3691C74.5411 24.2568 74.7461 23.897 74.7461 23.0877V16.3444C74.7461 15.6026 74.4273 15.2884 73.6765 15.2429L73.0162 15.2203V14.6134L76.6594 14.5235V16.6366C77.57 15.1072 78.7767 14.321 80.1428 14.321C82.7159 14.321 83.4672 15.7374 83.4672 18.7947V23.0884C83.4672 23.8753 83.6265 24.2575 84.3096 24.3698L85.1066 24.4824V25.1342H81.4184V18.2548C81.4184 16.2543 80.9176 15.2651 79.5513 15.2651C78.7767 15.2651 77.9803 15.7146 77.4792 16.5239C76.8644 17.4905 76.8191 18.6596 76.8191 20.1653V23.0877C76.8191 23.897 77.0237 24.2568 77.7981 24.3691L78.7089 24.4816V25.1334H73.0156V24.4816Z" fill="#667278"/>
<path d="M84.4678 15.355V14.6132C86.2894 14.3658 87.2 13.1517 87.4506 11.0162H88.179V14.6132H91.2983V15.355H88.0652V21.896C88.0652 23.6495 88.1561 24.5262 89.2947 24.5262C90.3419 24.5262 90.9796 23.582 90.9796 21.8061V21.6262H91.6854C91.6854 21.7837 91.7082 21.9175 91.7082 22.0757C91.7082 24.3239 90.6835 25.4478 88.7254 25.4478C87.7008 25.4478 86.9722 25.0882 86.5623 24.4138C86.1297 23.6719 86.0843 22.9755 86.0843 22.2108V15.355H84.4678Z" fill="#667278"/>
<path d="M91.708 24.4814L92.4825 24.3689C93.2111 24.2565 93.4162 23.8968 93.4162 23.0875V16.3667C93.4162 15.6248 93.0973 15.2874 92.3466 15.2426L91.7091 15.22V14.6132L95.4895 14.5233V17.131C96.0588 15.2193 96.9463 14.2982 98.3585 14.2982C99.5426 14.2982 100.248 14.9052 100.248 15.8276C100.248 16.547 99.7702 17.0415 99.1098 17.0415C98.4495 17.0415 97.9941 16.6369 97.9941 15.9175C97.9941 15.4453 98.3357 15.1756 98.3357 15.1082C98.3357 15.0633 98.2674 15.0183 98.1535 15.0183C97.812 15.0183 97.0151 15.3555 96.4005 16.5477C95.8994 17.5145 95.4895 19.1105 95.4895 20.9312V22.8872C95.4895 24.0561 96.0588 24.4382 97.5615 24.4834V25.1352H91.708V24.4814Z" fill="#667278"/>
<path d="M102.361 19.7389C102.361 19.9186 102.338 20.0759 102.338 20.256C102.338 22.9985 103.568 24.5271 105.594 24.5271C106.778 24.5271 107.803 23.8977 108.828 22.6165L109.351 22.9988C108.327 24.6174 106.938 25.4491 105.23 25.4491C103.613 25.4491 102.475 24.9545 101.382 23.7406C100.399 22.6851 99.8477 21.3077 99.833 19.8742C99.8498 18.6329 100.264 17.4287 101.017 16.4343C102.019 15.0857 103.453 14.2988 104.979 14.2988C107.575 14.2988 109.441 16.322 109.487 19.7393L102.361 19.7389ZM107.211 18.6148C107.211 16.3207 106.255 15.0178 104.843 15.0178C103.34 15.0178 102.475 16.3442 102.316 18.9971H107.211V18.6148Z" fill="#667278"/>
<path d="M137.68 15.7299C137.179 15.7297 136.686 15.8568 136.247 16.0994C135.808 16.342 135.437 16.692 135.171 17.1167C134.904 17.5414 134.749 18.0268 134.721 18.5276C134.693 19.0283 134.793 19.5279 135.011 19.9797C135.229 20.4314 135.558 20.8204 135.967 21.1103C136.376 21.4002 136.853 21.5814 137.351 21.637C137.849 21.6926 138.354 21.6208 138.817 21.4283C139.28 21.2357 139.687 20.9288 139.999 20.5362V16.8489C139.722 16.4997 139.369 16.2176 138.968 16.0238C138.566 15.83 138.126 15.7295 137.68 15.7299Z" fill="#7665A0"/>
<path d="M131.299 21.6553C132.02 21.6551 132.716 21.3918 133.257 20.9149C133.798 20.4379 134.147 19.78 134.237 19.0645C134.328 18.3489 134.155 17.6249 133.75 17.0281C133.345 16.4313 132.736 16.0027 132.037 15.8228L128.429 19.4313C128.593 20.0678 128.964 20.6316 129.483 21.0342C130.003 21.4368 130.641 21.6553 131.299 21.6553" fill="#7665A0"/>
<path d="M137.681 15.2726C138.127 15.2729 138.567 15.1724 138.968 14.9787C139.37 14.7849 139.722 14.5028 139.999 14.1535V12.4317L137.714 10.1461L134.811 13.0486C134.975 13.6851 135.346 14.2489 135.866 14.6515C136.385 15.0541 137.024 15.2726 137.681 15.2726Z" fill="#7665A0"/>
<path d="M137.682 22.1125C136.896 22.1125 136.142 22.4247 135.587 22.9803C135.031 23.5359 134.719 24.2895 134.719 25.0753C134.719 25.132 134.721 25.1877 134.724 25.2434L140 25.2443V23.2317C139.723 22.8825 139.37 22.6004 138.969 22.4066C138.567 22.2128 138.127 22.1123 137.682 22.1126" fill="#7665A0"/>
<path d="M131.298 22.1125C130.909 22.1125 130.524 22.1892 130.164 22.3381C129.805 22.487 129.478 22.7052 129.203 22.9803C128.928 23.2554 128.71 23.582 128.561 23.9415C128.412 24.3009 128.335 24.6862 128.335 25.0753C128.335 25.1313 128.337 25.1869 128.34 25.2423L134.256 25.2433C134.259 25.1877 134.261 25.1317 134.261 25.0753C134.261 24.6862 134.184 24.3009 134.035 23.9415C133.886 23.582 133.668 23.2554 133.393 22.9803C133.118 22.7052 132.791 22.487 132.432 22.3381C132.072 22.1892 131.687 22.1125 131.298 22.1125Z" fill="#7665A0"/>
<path d="M125.654 22.2054L122.619 25.2411L127.873 25.2421C127.877 25.1868 127.878 25.1312 127.878 25.0752C127.878 24.4179 127.66 23.7794 127.257 23.2599C126.855 22.7404 126.291 22.3694 125.654 22.2053" fill="#7665A0"/>
<path d="M116.678 10.1449L114.439 12.3843L124.957 22.9027L127.197 20.6633L116.678 10.1449Z" fill="#4C868F"/>
<path d="M123.953 23.907L114.409 14.3628V18.7955L120.854 25.241H122.619L123.953 23.907Z" fill="#4C868F"/>
<path d="M114.409 25.2394L118.845 25.2403L114.409 20.8037V25.2394Z" fill="#4C868F"/>
<path d="M118.792 12.258L116.679 10.1454L118.141 8.68292C118.177 8.71533 118.213 8.74856 118.248 8.78324C118.694 9.23027 118.988 9.80762 119.086 10.4321C119.184 11.0566 119.081 11.6961 118.792 12.2583V12.258ZM127.192 8.05755L129.992 10.8578L127.193 13.6568L124.393 10.8566L127.192 8.05755ZM128.591 10.8585L127.191 9.45845L125.793 10.8564L127.193 12.2567L128.591 10.8585ZM135.607 12.2534L137.714 10.1458L136.252 8.68317C136.218 8.7142 136.184 8.74556 136.151 8.77838C135.704 9.22542 135.411 9.80279 135.313 10.4273C135.215 11.0518 135.318 11.6913 135.607 12.2535L135.607 12.2534ZM135.463 8.08972C134.833 8.72003 134.434 9.54451 134.33 10.4297C134.227 11.315 134.425 12.2092 134.893 12.9676L134.014 13.8473C133.843 12.9816 133.418 12.1864 132.793 11.5634L132.438 11.2091L131.742 11.9053L132.096 12.2597C132.423 12.5848 132.681 12.9714 132.857 13.3971C133.033 13.8229 133.123 14.2793 133.121 14.74L131.829 16.0323C132.022 15.649 132.122 15.2254 132.121 14.796C132.121 14.6358 132.108 14.4758 132.08 14.318H132.079C131.996 13.8064 131.755 13.334 131.388 12.9681L131.038 12.6093L130.333 13.3143L130.687 13.6686C130.825 13.8062 130.934 13.9696 131.009 14.1494C131.083 14.3293 131.121 14.522 131.121 14.7167C131.121 14.9113 131.083 15.104 131.009 15.2839C130.934 15.4637 130.825 15.6271 130.687 15.7647L127.191 19.2613L123.694 15.7647C123.416 15.4867 123.26 15.1098 123.26 14.7167C123.26 14.3236 123.416 13.9466 123.694 13.6686L124.049 13.3136L123.344 12.6087L122.994 12.9675C122.627 13.3333 122.385 13.8057 122.303 14.3173H122.302C122.275 14.4752 122.261 14.6351 122.261 14.7954C122.26 15.2165 122.357 15.6322 122.543 16.0097L121.261 14.7275C121.261 14.2688 121.351 13.8146 121.527 13.391C121.703 12.9674 121.961 12.5827 122.286 12.259L122.64 11.9047L121.944 11.2084L121.59 11.5627C120.967 12.1835 120.543 12.9751 120.371 13.8373L119.505 12.9717C119.973 12.2132 120.172 11.319 120.068 10.4338C119.965 9.54855 119.566 8.72407 118.936 8.09377C118.901 8.05909 118.866 8.02611 118.831 7.99305L120.314 6.51023C120.24 7.17416 120.316 7.84619 120.538 8.47648C120.759 9.10676 121.12 9.67912 121.592 10.1511L121.947 10.5054L122.643 9.80914L122.289 9.4548C121.661 8.83009 121.295 7.98924 121.266 7.10395C121.237 6.21867 121.547 5.35574 122.133 4.69139L126.558 0.267243C126.642 0.182599 126.741 0.115383 126.851 0.0695048C126.96 0.0236262 127.078 0 127.197 0C127.316 0 127.433 0.0236262 127.543 0.0695048C127.653 0.115383 127.752 0.182599 127.835 0.267243L132.203 4.63467C132.812 5.29559 133.142 6.16699 133.123 7.06585C133.103 7.96471 132.736 8.82109 132.099 9.45512L131.744 9.80946L132.441 10.5057L132.796 10.1514C133.269 9.67871 133.63 9.10534 133.851 8.47396C134.072 7.84258 134.148 7.16944 134.073 6.50464L135.563 7.99443C135.529 8.02586 135.495 8.05722 135.463 8.09004V8.08972ZM125.089 14.3697L124.743 14.0233L124.397 14.3697C124.305 14.4616 124.253 14.5862 124.253 14.7161C124.253 14.846 124.305 14.9706 124.397 15.0624L124.743 15.4086L125.089 15.0624C125.181 14.9706 125.233 14.846 125.233 14.7161C125.233 14.5862 125.181 14.4616 125.089 14.3697H125.089ZM127.541 17.505L127.188 17.1512L126.839 17.5003L127.192 17.854L127.541 17.505ZM129.986 14.3692L129.64 14.0228L129.294 14.3692C129.202 14.461 129.15 14.5856 129.15 14.7155C129.15 14.8454 129.202 14.97 129.294 15.0619L129.64 15.408L129.986 15.0619C130.078 14.97 130.13 14.8454 130.13 14.7155C130.13 14.5856 130.078 14.461 129.986 14.3692ZM131.399 10.8506L128.594 8.0458C128.317 7.76775 128.16 7.39078 128.16 6.99774C128.16 6.60469 128.317 6.22772 128.594 5.94968L128.94 5.60393L128.24 4.90376L127.194 5.95041L126.148 4.90417L125.448 5.60433L125.793 5.95008C126.071 6.22805 126.227 6.60505 126.227 6.99814C126.227 7.39124 126.071 7.76823 125.793 8.0462L122.988 10.851L122.986 10.8631L125.791 13.6679C126.069 13.9458 126.225 14.3228 126.225 14.7159C126.225 15.109 126.069 15.486 125.791 15.764L125.445 16.1097L126.145 16.8099L127.191 15.7637L128.237 16.8099L128.938 16.1097L128.592 15.764C128.454 15.6264 128.345 15.463 128.27 15.2831C128.196 15.1033 128.158 14.9106 128.158 14.7159C128.158 14.5213 128.196 14.3285 128.27 14.1487C128.345 13.9689 128.454 13.8055 128.592 13.6679L131.397 10.8631L131.399 10.8506ZM124.399 7.34409L124.745 7.69049L125.091 7.34409C125.137 7.29861 125.173 7.24461 125.198 7.18518C125.222 7.12576 125.235 7.06206 125.235 6.99774C125.235 6.93341 125.222 6.86972 125.198 6.81029C125.173 6.75086 125.137 6.69687 125.091 6.65138L124.745 6.30523L124.399 6.65138C124.307 6.74325 124.255 6.86784 124.255 6.99774C124.255 7.12764 124.307 7.25222 124.399 7.34409ZM127.197 4.56255L127.546 4.21348L127.193 3.86004L126.844 4.20903L127.197 4.56255ZM129.296 7.34417L129.642 7.69057L129.989 7.34417C130.034 7.29869 130.07 7.24469 130.095 7.18527C130.119 7.12584 130.132 7.06214 130.132 6.99782C130.132 6.93349 130.119 6.8698 130.095 6.81037C130.07 6.75094 130.034 6.69695 129.989 6.65146L129.643 6.30531L129.296 6.65146C129.204 6.74333 129.153 6.86792 129.153 6.99782C129.153 7.12772 129.204 7.25231 129.296 7.34417ZM131.39 5.25L127.194 1.05354L122.997 5.25C122.767 5.47957 122.585 5.75211 122.461 6.05207C122.336 6.35202 122.272 6.67351 122.272 6.99818C122.272 7.32285 122.336 7.64434 122.461 7.9443C122.585 8.24425 122.767 8.5168 122.997 8.74637L123.346 9.10516L124.051 8.40022L123.697 8.04588C123.419 7.76791 123.263 7.39091 123.263 6.99782C123.263 6.60472 123.419 6.22773 123.697 5.94976L127.194 2.45347L130.69 5.95008C130.828 6.08771 130.937 6.2511 131.012 6.43093C131.086 6.61076 131.125 6.8035 131.125 6.99814C131.125 7.19279 131.086 7.38553 131.012 7.56536C130.937 7.74518 130.828 7.90858 130.69 8.0462L130.336 8.40054L131.041 9.10549L131.391 8.74669C131.62 8.51712 131.803 8.24458 131.927 7.94462C132.051 7.64467 132.115 7.32318 132.115 6.99851C132.115 6.67384 132.051 6.35235 131.927 6.05239C131.803 5.75244 131.62 5.47989 131.391 5.25032" fill="#A49483"/>
</svg>
