<svg width="72" height="32" viewBox="0 0 72 32" fill="none" xmlns="http://www.w3.org/2000/svg">
<path d="M4.41256 23.4655C1.7814 23.4358 0.5 22.2818 0.5 19.9443V6.45654H2.41155V19.584C2.41155 20.2574 2.61126 20.7999 2.99943 21.1928C3.36323 21.5581 3.83912 21.7598 4.41256 21.7789V23.4655" fill="#1A1918"/>
<path d="M6.75954 23.5011V12.7527H5.12695V11.1687H8.67253V23.5011H6.75954Z" fill="#1A1918"/>
<path d="M12.15 23.4741V12.9874H10.417V11.1815H12.1648V11.0711C12.1648 9.63302 12.4942 8.63863 13.2701 7.7418C14.0023 6.89569 14.9792 6.46692 16.1834 6.46692C16.7546 6.46692 17.3619 6.56361 18.0322 6.76609L17.5158 8.11665C17.0967 7.98319 16.7191 7.92027 16.3641 7.92027C15.6761 7.92027 15.1052 8.18431 14.6632 8.70406C14.2194 9.21567 13.9961 9.86976 13.9961 10.6548C13.9961 10.7733 13.9961 10.8276 13.9936 10.8792C13.9936 10.9274 13.9896 10.9769 13.9896 11.0711V11.1815H16.499V12.9874H14.0661V23.4741H12.15" fill="#1A1918"/>
<path fill-rule="evenodd" clip-rule="evenodd" d="M18.4289 21.9563C19.4543 22.9586 20.7205 23.4686 22.1868 23.4686C23.2122 23.4686 24.154 23.3129 24.9899 23.0013C25.607 22.7775 26.0818 22.5185 26.3949 22.2197L25.6151 20.87C24.8001 21.5427 23.7856 21.8841 22.6003 21.8841C21.5074 21.8841 20.5994 21.5386 19.9016 20.8574C19.1154 20.079 18.7178 18.9555 18.7178 17.5157V17.3995H27.385C27.477 17.0386 27.5256 16.6444 27.5256 16.2054C27.5256 14.6994 27.0624 13.4783 26.1512 12.5759C25.2097 11.6324 23.8814 11.1552 22.2101 11.1552C20.779 11.1552 19.5225 11.6851 18.4709 12.7324C17.2969 13.9085 16.7026 15.5005 16.7026 17.4537C16.7026 19.3335 17.2859 20.849 18.4289 21.9563ZM19.7927 13.7623C20.4525 13.1289 21.2794 12.8035 22.2563 12.8035C23.2981 12.8035 24.1336 13.1346 24.7419 13.7889C25.2992 14.39 25.5805 15.1487 25.5805 16.0372V16.1488H18.7061L18.717 16.028C18.7998 15.1302 19.1647 14.3706 19.7927 13.7623Z" fill="#1A1918"/>
<path d="M32.2197 23.4683C31.019 23.4683 29.8722 23.1689 28.8081 22.5804L29.4727 20.7684C30.6203 21.5078 31.5596 21.8838 32.2768 21.8838C33.6562 21.8838 34.3567 21.2833 34.3567 20.1008C34.3567 19.2598 33.6934 18.5365 32.3857 17.9487C31.4008 17.4913 30.7605 17.1578 30.428 16.928C30.0866 16.6947 29.807 16.443 29.5675 16.1521C29.3255 15.868 29.1494 15.5692 29.0272 15.2404C28.9046 14.9164 28.8483 14.5749 28.8483 14.1956C28.8483 13.2436 29.1976 12.4931 29.8775 11.9618C30.5706 11.4229 31.4924 11.1492 32.6143 11.1492C33.4387 11.1492 34.5039 11.4158 35.7755 11.9366L35.2478 13.6643C34.4317 13.0482 33.5972 12.7368 32.7682 12.7368C32.2437 12.7368 31.795 12.8631 31.43 13.1163C31.0524 13.3803 30.8588 13.7206 30.8588 14.1242C30.8588 14.9416 31.3233 15.5668 32.2334 15.9842L33.7548 16.6855C34.6695 17.1071 35.3408 17.5879 35.7554 18.1179C36.1605 18.6478 36.3661 19.3156 36.3661 20.1156C36.3661 21.1615 36.0002 21.9885 35.2739 22.5734C34.5501 23.1689 33.5237 23.4683 32.2197 23.4683" fill="#1A1918"/>
<path d="M41.5583 23.4683C40.6376 23.4683 39.8536 23.1207 39.2273 22.4362C38.5982 21.7527 38.2769 20.8697 38.2769 19.8164V12.838H36.873V11.1892H38.2769V8.62575L40.1874 7.88794V11.1892H43.4928V12.838H40.1874V18.958C40.1874 19.9933 40.3621 20.7466 40.7193 21.1976C41.0864 21.6514 41.6683 21.8838 42.4565 21.8838C42.9743 21.8838 43.5126 21.7678 44.0676 21.5284L44.3423 23.1597C43.4984 23.3655 42.5628 23.4683 41.5583 23.4683" fill="#1A1918"/>
<path d="M45.816 26.3121C46.6757 26.2979 47.4252 26.0797 48.0499 25.6691C48.7143 25.2336 49.0531 24.6892 49.0531 24.0463C49.0531 23.3722 48.9326 22.7038 48.6968 22.0551C48.4479 21.3698 48.1472 20.5668 47.7985 19.6689L44.5298 11.2159H46.4607L50.1485 20.9718L53.5046 11.1663H55.4334L50.2986 25.3922C50.0261 26.135 49.4581 26.7595 48.6085 27.251C47.776 27.7294 46.8419 27.9817 45.816 27.9999V26.3121" fill="#1A1918"/>
<path d="M60.4928 23.4655C57.8622 23.4358 56.5815 22.2818 56.5815 19.9443V6.45654H58.4962V19.584C58.4962 20.2574 58.6898 20.7963 59.0781 21.1928C59.4444 21.5581 59.9191 21.7598 60.4928 21.7789V23.4655" fill="#1A1918"/>
<path fill-rule="evenodd" clip-rule="evenodd" d="M62.4019 21.9502C63.427 22.9584 64.6901 23.4683 66.1667 23.4683C67.1945 23.4683 68.1334 23.3105 68.9618 22.9982C69.5832 22.7746 70.0587 22.5161 70.3707 22.2194L69.5889 20.8697C68.7738 21.5425 67.7644 21.8838 66.5773 21.8838C65.4832 21.8838 64.5746 21.5354 63.8757 20.8543C63.0909 20.0768 62.6965 18.9503 62.6965 17.5086V17.3946H71.3599C71.4556 17.0315 71.5 16.6324 71.5 16.2036C71.5 14.6991 71.0373 13.4781 70.1257 12.5723C69.1844 11.6296 67.8588 11.1492 66.1878 11.1492C64.7568 11.1492 63.4965 11.6838 62.4513 12.731C61.2764 13.9082 60.6816 15.4967 60.6816 17.4534C60.6816 19.332 61.2608 20.8443 62.4019 21.9502ZM63.8322 13.6943C64.4942 13.0564 65.3256 12.7368 66.3005 12.7368C67.3409 12.7368 68.1766 13.0678 68.79 13.7206C69.3437 14.3231 69.6249 15.0772 69.6249 15.9636V16.0773H62.7466L62.7556 15.953C62.8431 15.0612 63.2037 14.3025 63.8322 13.6943Z" fill="#1A1918"/>
<path d="M9.2061 7.56271C9.2061 8.96187 8.0807 10.0906 6.68943 10.0906C5.30163 10.0906 4.17383 8.96187 4.17383 7.56271C4.17383 6.16607 5.30163 5.03357 6.68943 5.03357C8.0807 5.03357 9.2061 6.16607 9.2061 7.56271" fill="#DD488C"/>
<mask id="mask0_62_3149" style="mask-type:alpha" maskUnits="userSpaceOnUse" x="6" y="4" width="6" height="5">
<path fill-rule="evenodd" clip-rule="evenodd" d="M11.4671 4H6.89697V8.59147H11.4671V4V4Z" fill="white"/>
</mask>
<g mask="url(#mask0_62_3149)">
<path d="M11.4671 6.29802C11.4671 7.56622 10.4425 8.59148 9.17983 8.59148C7.91876 8.59148 6.89697 7.56622 6.89697 6.29802C6.89697 5.02672 7.91876 4 9.17983 4C10.4425 4 11.4671 5.02672 11.4671 6.29802" fill="#EE9F2D"/>
</g>
<path d="M7.23211 5.09448C7.01728 5.44524 6.89258 5.8531 6.89258 6.29803C6.89258 7.50042 7.81364 8.49035 8.98834 8.58898C9.1296 8.27423 9.20674 7.92696 9.20674 7.56265C9.20674 6.35223 8.3631 5.34497 7.23211 5.09448" fill="#C6242A"/>
</svg>
