<svg width="60" height="32" viewBox="0 0 60 32" fill="none" xmlns="http://www.w3.org/2000/svg">
<path fill-rule="evenodd" clip-rule="evenodd" d="M54.1078 15.5227L59.6346 9.125H53.8853L51.0636 12.6724L48.26 9.14855L48.2415 9.125H42.4922L48.019 15.5227L42.1274 22.875H47.7536L51.0636 18.6891L54.3552 22.8512L54.3736 22.875H59.9998L54.1078 15.5227Z" fill="#E4002B"/>
<path fill-rule="evenodd" clip-rule="evenodd" d="M28.6053 16.0631C28.6053 17.353 29.6008 19.5792 32.2214 19.5792C33.7671 19.5792 34.7105 18.871 35.2605 18.0111C35.6274 17.4545 35.8107 16.8476 35.8633 16.2147C35.9159 15.5828 35.7847 14.9502 35.4966 14.3684C35.0246 13.4071 34.0291 12.4208 32.1949 12.4208C29.7055 12.4208 28.6053 14.4444 28.6053 16.038V16.0631ZM40.2128 23.0197H35.8632V21.5015C35.0771 22.8677 33.2694 23.5 31.5663 23.5C26.9543 23.5 24.2554 20.0094 24.2554 15.9871C24.2554 11.3836 27.6879 8.5 31.5663 8.5C33.9504 8.5 35.2869 9.61287 35.8632 10.4728V8.98032H40.2128V23.0197Z" fill="#303AB2"/>
<path fill-rule="evenodd" clip-rule="evenodd" d="M0 8.97554H3.9482V10.4532C3.9482 10.4532 4.20287 9.95243 4.8142 9.47629C5.42553 8.97554 6.41907 8.5 7.8964 8.5C8.86419 8.5 10.0868 8.75018 11.1315 9.82714C11.4371 10.1278 11.7171 10.5032 11.9719 10.979C12.2524 10.5533 12.5831 10.1278 12.9908 9.77711C13.8315 9.02557 14.9775 8.5 16.4548 8.5C17.4486 8.5 19.0277 8.72536 20.1737 9.90239C21.4986 11.2796 21.7021 12.206 21.7021 15.2866V22.875H17.4743V15.4868C17.4743 14.9107 17.4743 14.1596 17.1937 13.5336C16.9394 12.8821 16.4041 12.4066 15.3088 12.4066C14.1372 12.4066 13.5515 12.9325 13.2708 13.5588C12.9655 14.1844 12.9655 14.8859 12.9655 15.2866V22.875H8.73706V15.3114C8.73706 14.936 8.73706 14.2096 8.48198 13.5836C8.20197 12.9325 7.69242 12.4066 6.62285 12.4066C5.42553 12.4066 4.83996 12.9578 4.53419 13.6336C4.22821 14.3097 4.22821 15.0613 4.22821 15.4868V22.875H0V8.97554Z" fill="#303AB2"/>
</svg>
