<svg width="60" height="12" viewBox="0 0 102 12" fill="none" xmlns="http://www.w3.org/2000/svg">
<path fill-rule="evenodd" clip-rule="evenodd" d="M78.5254 11.9877L73.6461 0L71.8412 0.0123673L66.9798 11.9877L68.8722 11.9751C68.8788 11.9588 69.5172 10.3648 69.7699 9.70646C70.0115 9.07688 70.4356 9.07688 70.8105 9.07688L75.3909 9.06394L76.5432 11.9877H78.5254ZM8.48355 8.66928C8.48355 6.80642 7.2972 5.73938 4.72662 5.10117C2.62213 4.58821 1.91161 4.08072 1.91161 3.08947C1.91161 2.25755 2.90407 1.61718 4.07868 1.61718C5.60711 1.61718 6.62678 2.30414 7.44483 3.03252L8.51863 1.79521C7.52588 0.843507 6.05816 0.00483147 3.91415 0.00483147C2.09389 0.00483147 0.0830513 1.1038 0.0830513 3.23658C0.0830513 5.09369 1.51211 5.92992 4.05505 6.55677C6.18073 7.05779 6.71556 7.86397 6.61647 8.90857C6.52898 9.83612 5.51919 10.4157 4.23504 10.4157C2.98512 10.4157 1.76255 9.45575 1.76255 9.45575C1.27971 9.13449 0.904973 9.15664 0.545131 9.52622L0 10.2593L0.0144624 10.272C0.0144624 10.272 1.67449 12 4.32482 12C6.83498 11.9998 8.48355 10.724 8.48355 8.66928ZM63.9792 0.012207V11.9876H62.2309V2.81355L58.7876 8.2077C58.7849 8.21259 58.4712 8.69219 57.9716 8.69219C57.471 8.69219 57.2032 8.17075 57.2006 8.16571L53.7003 2.84576V11.9876H52.0239V0.012207H53.8243L58.0744 6.6651L62.1356 0.0216982L63.9792 0.012207ZM85.5274 7.49773L88.3658 11.9876H90.1484L87.0675 7.09091C87.0837 7.08455 87.1082 7.0761 87.1397 7.0652C87.6163 6.90035 89.7116 6.17558 89.7116 3.66516C89.7116 2.65148 89.439 1.78044 88.8498 1.14597C88.1707 0.41472 87.111 0.012207 85.8656 0.012207H81.5803V11.9875H83.1746V2.53169C83.1746 2.00219 83.5378 1.59393 84.0382 1.59393H85.8821C87.3062 1.59393 88.1563 2.36214 88.1563 3.64906C88.1563 4.8461 87.167 5.62682 86.2096 5.69024C85.9842 5.70519 85.7548 5.70735 85.638 5.70735L85.5243 5.70663L85.5274 7.49773ZM98.2675 2.43117V11.9718H96.6163V1.53108H93.0006V0.012207H102V1.53108H99.0452C98.5435 1.53108 98.2675 1.85077 98.2675 2.43117ZM72.6717 1.97568L70.5757 7.37387H74.7857L72.6717 1.97568ZM48.4475 11.9876V10.4501H42.3395V7.53469C42.3395 7.10946 42.6185 6.85521 43.0854 6.85521H47.6257V5.11473H42.3394V1.66008H48.365V0.012207H40.7094V11.9876H48.4475ZM31.2595 0.00708008C34.6567 0.00708008 37.2177 2.57574 37.2177 5.98207C37.2177 9.40753 34.6424 11.9906 31.2268 11.9906C27.8304 11.9906 25.269 9.42191 25.269 6.01543C25.269 2.58998 27.8443 0.00708008 31.2595 0.00708008ZM35.4184 6.01652C35.4184 8.54045 33.6309 10.4443 31.2608 10.4443C28.8711 10.4443 27.0688 8.52564 27.0688 5.98114C27.0688 3.45706 28.8562 1.55322 31.2261 1.55322C33.6161 1.55322 35.4184 3.47202 35.4184 6.01652ZM21.9027 0.012207V11.9876H20.2122V6.90684H14.5016C14.203 6.90684 14.0577 7.06603 14.0577 7.39333V11.9876H12.3732V0.012207H14.0577V5.02384H19.5531C20.0397 5.02384 20.2122 4.80324 20.2122 4.18071V0.012207H21.9027Z" fill="#231F20"/>
</svg>
