<svg width="140" height="32" viewBox="0 0 140 32" fill="none" xmlns="http://www.w3.org/2000/svg">
<path d="M49.0252 17.0769C49.0288 18.863 48.4017 20.1978 47.1427 21.0864C46.2171 21.7318 45.149 22.0544 43.9424 22.0569L43.6792 22.0576C41.7885 22.0612 40.2292 21.3943 39 20.0616L39.837 19.123C40.7344 20.4901 41.9101 21.1739 43.3629 21.1715H43.4676C44.2723 21.1701 44.9342 20.8815 45.4475 20.3058C45.9625 19.7328 46.2189 19.0104 46.2157 18.1437L46.2171 18.0392C46.2146 17.2245 45.9871 16.4975 45.5299 15.8557C45.144 15.3334 44.387 14.6072 43.2647 13.6717C42.0701 12.687 41.2645 11.9362 40.8427 11.4155C40.1752 10.5823 39.8395 9.71776 39.837 8.81386V8.57844C39.8338 6.96483 40.4163 5.751 41.5858 4.93249C42.4788 4.32417 43.5198 4.01622 44.7094 4.01474L44.9468 4.01161C46.4691 4.00963 47.6523 4.3428 48.4929 5.01294L47.891 5.99911C47.2045 5.20417 46.3265 4.80489 45.2548 4.80868H45.1767C44.37 4.81083 43.7282 5.08861 43.2559 5.64599C42.7836 6.20205 42.5494 6.88686 42.5519 7.70454V7.83115C42.5519 8.43914 42.7433 9.00344 43.123 9.52274C43.4997 10.0414 44.1904 10.7081 45.1932 11.5195C46.5295 12.5927 47.4099 13.3889 47.8323 13.9053C48.624 14.8235 49.0207 15.7851 49.0232 16.7906L49.0252 17.0769Z" fill="#1D1D1B"/>
<path d="M101 21.782H98.3152V14.8024C98.3102 12.8534 97.7598 11.8816 96.6575 11.8851C95.9044 11.886 95.267 12.1754 94.7947 12.7478V21.782H92.1587V4H94.7947V12.1347C95.6184 11.3982 96.6236 11.0263 97.7623 11.0227C99.9158 11.0206 100.994 12.0766 101 14.1957V21.782Z" fill="#1D1D1B"/>
<path d="M89.5962 18.7992C89.5987 20.0317 89.139 20.9153 88.2092 21.4565C87.5644 21.8365 86.7796 22.0309 85.8487 22.032C84.5185 22.0345 83.4212 21.6153 82.5596 20.7702L83.1644 19.9667C83.8496 20.8555 84.6519 21.3002 85.5779 21.2978C86.0841 21.2978 86.4822 21.1441 86.7772 20.8403C87.0754 20.5353 87.2268 20.1411 87.2244 19.6555C87.2204 19.2029 87.0644 18.7857 86.7506 18.4037C86.505 18.1282 86.0424 17.7482 85.3637 17.2594C83.9001 16.207 83.1693 15.1854 83.1655 14.1936C83.1644 13.0475 83.5812 12.1977 84.4163 11.6398C85.0462 11.2386 85.8045 11.0353 86.6952 11.0333C87.7583 11.0315 88.6238 11.304 89.2912 11.8439L88.7686 12.6346C88.3656 12.0137 87.7709 11.7061 86.9888 11.7096C85.957 11.7107 85.4443 12.2585 85.4468 13.3504C85.4508 13.9043 85.9381 14.5441 86.9182 15.2705C87.8101 15.9103 88.4335 16.4365 88.7799 16.8519C89.3228 17.4733 89.5936 18.1263 89.5962 18.7992Z" fill="#1D1D1B"/>
<path fill-rule="evenodd" clip-rule="evenodd" d="M75.6471 11.0642C78.5857 11.0586 80.077 12.3209 80.0832 14.8548L80.0845 21.7771L77.4596 21.7827L77.4583 21.1559C76.8625 21.657 76.0603 21.9078 75.0439 21.9083C74.2023 21.9106 73.5195 21.7401 72.9915 21.3921C72.2026 20.874 71.8074 20.178 71.8042 19.306C71.8042 18.2806 72.2272 17.5045 73.0812 16.9794C73.6891 16.612 74.4646 16.4272 75.4066 16.4258C76.1914 16.4234 76.8715 16.5432 77.4458 16.7808V15.1934C77.4394 12.8897 76.6256 11.736 75.0037 11.7395C73.992 11.7433 73.2112 12.2204 72.6528 13.1696L71.9742 12.6292C72.8475 11.5904 74.0692 11.0692 75.6471 11.0642ZM74.9397 20.7242C75.2535 20.9834 75.639 21.1141 76.0948 21.1128C76.654 21.1116 77.1076 20.9516 77.459 20.6392L77.4491 17.3546C77.1002 17.1828 76.663 17.0957 76.1378 17.0989C75.6639 17.0995 75.2622 17.2558 74.932 17.5682C74.5113 17.9357 74.305 18.467 74.3086 19.1619C74.3086 19.8549 74.5178 20.3756 74.9397 20.7242Z" fill="#1D1D1B"/>
<path d="M70.1445 21.3753C69.6567 21.7771 68.9477 21.9782 68.0192 21.9794C66.9341 21.9826 66.1625 21.6458 65.7066 20.9703C65.3218 20.4154 65.1257 19.5629 65.1221 18.4129V4H67.8076V18.2249C67.8114 19.3403 67.8651 20.0891 67.9714 20.4691C68.1126 21.0265 68.418 21.3028 68.8885 21.3015C69.2375 21.3015 69.5598 21.1465 69.8559 20.8277L70.1445 21.3753Z" fill="#1D1D1B"/>
<path fill-rule="evenodd" clip-rule="evenodd" d="M57.5963 11.2064C59.2998 11.203 60.5933 11.7205 61.4745 12.761C62.2693 13.6961 62.6666 14.9635 62.6703 16.5639C62.6736 18.1426 62.2031 19.4299 61.2545 20.4216C60.2554 21.4841 58.8963 22.0159 57.1725 22.0202C56.2236 22.0226 55.2693 21.8077 54.355 21.3754V28H51.6685V11.4311H54.355V12.2579C55.2323 11.5617 56.3121 11.2089 57.5963 11.2064ZM56.3571 21.2878C57.4455 21.2827 58.3072 20.8315 58.9396 19.9273C59.517 19.0723 59.8049 17.9881 59.8006 16.6696C59.7986 15.3827 59.5228 14.3192 58.9755 13.4694C58.3399 12.5315 57.4595 12.0628 56.3352 12.0679C55.5433 12.0684 54.8835 12.3555 54.3555 12.931V20.7441C54.9024 21.1065 55.5837 21.289 56.3571 21.2878Z" fill="#1D1D1B"/>
</svg>
