<svg width="46" height="46" viewBox="0 0 46 46" fill="none" xmlns="http://www.w3.org/2000/svg">
<path d="M23.0007 34.0257C23.5451 34.0257 23.9923 33.8507 24.3423 33.5006C24.6923 33.1507 24.8673 32.7034 24.8673 32.159C24.8673 31.6145 24.6923 31.1673 24.3423 30.8173C23.9923 30.4673 23.5451 30.2923 23.0007 30.2923C22.4562 30.2923 22.009 30.4673 21.659 30.8173C21.309 31.1673 21.134 31.6145 21.134 32.159C21.134 32.7034 21.309 33.1507 21.659 33.5006C22.009 33.8507 22.4562 34.0257 23.0007 34.0257ZM21.2507 25.509H24.7507V11.509H21.2507V25.509ZM23.0007 45.1673C19.9284 45.1673 17.0413 44.584 14.3393 43.4173C11.6358 42.2506 9.29232 40.6757 7.30898 38.6923C5.32565 36.709 3.75065 34.3655 2.58398 31.662C1.41732 28.96 0.833984 26.0729 0.833984 23.0007C0.833984 19.9284 1.41732 17.0405 2.58398 14.337C3.75065 11.635 5.32565 9.29232 7.30898 7.30898C9.29232 5.32565 11.6358 3.75065 14.3393 2.58398C17.0413 1.41732 19.9284 0.833984 23.0007 0.833984C26.0729 0.833984 28.9608 1.41732 31.6643 2.58398C34.3663 3.75065 36.709 5.32565 38.6923 7.30898C40.6757 9.29232 42.2506 11.635 43.4173 14.337C44.584 17.0405 45.1673 19.9284 45.1673 23.0007C45.1673 26.0729 44.584 28.96 43.4173 31.662C42.2506 34.3655 40.6757 36.709 38.6923 38.6923C36.709 40.6757 34.3663 42.2506 31.6643 43.4173C28.9608 44.584 26.0729 45.1673 23.0007 45.1673Z" fill="#FED130"/>
</svg>
